<svg id="Layer_1" style="enable-background:new 0 0 52 52;" version="1.1" viewBox="0 0 52 52" xml:space="preserve" xmlns="http://www.w3.org/2000/svg" xmlns:xlink="http://www.w3.org/1999/xlink"><style type="text/css">
	.st0{fill:#f19d00;}
</style><g><g><path class="st0" d="M37.6625099,5.2137556c4.9997444,4.9274168-5.396492,11.589797-8.0914516,4.6717224    c-0.8600903-2.2078872-0.4460888-4.9223652,1.716074-6.0924768c1.0658035-0.576787,2.5811882-0.636004,3.8077393-0.5247033    c1.5691109,0.1423857,2.0874252,0.7528143,3.0822334,1.8406568c0.9793015,1.0708828,2.5669975-0.5237131,1.590992-1.5909903    c-1.682518-1.8398592-2.5421066-2.5047021-5.0889282-2.5079603c-2.1104317-0.0027001-3.9518604,0.1000047-5.5678616,1.5374199    c-1.5098515,1.342994-2.0442543,2.2040761-2.068634,4.2153978c-0.0244522,2.0172477,0.0163479,3.7516065,1.2906151,5.3870673    c2.4207954,3.1069794,6.0441341,4.2442226,9.5343647,1.8237581c3.5648575-2.4722157,4.6085167-7.1748319,1.385849-10.3508816    C38.2212181,2.6054144,36.6291428,4.1953368,37.6625099,5.2137556L37.6625099,5.2137556z"/></g><g><path class="st0" d="M35.3724518,6.5294585c-0.7693291-1.6624308-2.6351166-1.2471232-2.6148415,0.5884323    c0.0082474,0.7467532,0.3270187,1.3557916,1.0881424,1.5383897c0.4948425,0.1187153,1.8853302-0.0177555,1.8634338,0.8418837    c-0.1290436,0.5340462-0.4529648,0.7172289-0.9717598,0.5495501c-0.3646011,0.1539001-0.6400681,0.0892019-0.8264084-0.1940956    c-0.2664299-0.1844244-0.4853172-0.5575914-0.6930618-0.7989273c-0.3154106-0.3664093-0.8438759,0.16609-0.5303307,0.5303307    c0.560051,0.650609,1.1857605,1.592268,2.1690865,1.4964409c0.682991-0.0665598,1.3002205-0.624012,1.5252304-1.2565155    c0.2381783-0.6695328,0.0105133-1.2676601-0.6406746-1.5648127c-0.332962-0.1519394-0.6955032-0.1594496-1.0443611-0.2455311    c-0.4745941-0.117106-1.1678429-0.4850087-1.190136-1.0267186c-0.0299797-0.7284765,0.956768-0.644546,1.2180786-0.0798874    C34.9273491,7.3455758,35.5740318,6.9650497,35.3724518,6.5294585L35.3724518,6.5294585z"/></g><g><path class="st0" d="M33.8626251,10.7968712c-0.0696487,0.2620897-0.0926933,0.505331-0.0582848,0.7748833    c0.060276,0.4722404,0.8110466,0.47826,0.75,0c-0.0277977-0.2177534-0.0264816-0.3573303,0.0314941-0.5755033    C34.7099228,10.5293055,33.9866676,10.3300972,33.8626251,10.7968712L33.8626251,10.7968712z"/></g><g><path class="st0" d="M33.5043335,4.698379c0,0.3055558,0,0.6111112,0,0.916667c0,0.4825892,0.75,0.4833884,0.75,0    c0-0.3055558,0-0.6111112,0-0.916667C34.2543335,4.2157898,33.5043335,4.2149906,33.5043335,4.698379L33.5043335,4.698379z"/></g><g><path class="st0" d="M24.4807911,18.8699322c1.1487904,0.730278,0.9196472,3.8454914,0.4850426,4.7198353    c-0.3963604,0.7974014-1.6188354,2.1227093-2.4135685,2.5313435c-2.5293446,1.3005314-5.9355755-0.1695347-7.2511015-2.4082146    c-1.2899675-2.1951828-0.8695831-5.690197,1.7393827-6.8394661c1.3055286-0.5750961,3.4926243-0.6762218,4.8660507-0.299881    c1.1923561,0.326725,1.9868793,1.2074642,2.8468266,2.0432148c1.0389748,1.0097427,2.6316738-0.5795879,1.5909901-1.5909901    c-1.5926781-1.547864-2.7862492-2.5900211-5.0747414-2.7937279c-2.3316116-0.2075453-4.2127495-0.0614605-6.1944599,1.1887827    c-1.804431,1.1383982-2.4027605,2.8247919-2.6617956,4.9306211c-0.2978058,2.421011,0.2978315,3.8156681,1.7499065,5.6584797    c2.2898397,2.9060078,7.8433466,3.9179001,10.6354799,1.1832104c1.5805378-1.5480194,2.8845234-3.1903458,2.7888279-5.5047626    c-0.0699139-1.6908913-0.4681568-3.8057671-1.9712219-4.7612534    C24.3908348,16.148035,23.2608833,18.0944462,24.4807911,18.8699322L24.4807911,18.8699322z"/></g><g><path class="st0" d="M22.6031628,19.3354607c-0.5193977-1.119236-1.1888237-1.5498867-2.3814297-1.6911831    c-1.1575356-0.1371441-1.9625874,0.1594162-2.4943943,1.2777328c-0.4929237,1.0365543-0.4247646,2.1903095,0.4993572,2.935915    c0.5216122,0.4208469,1.1453476,0.62533,1.7075863,0.967041c0.7868538,0.4782257-0.3470154,0.2441959-0.4516468-0.2989464    c-0.2736149-1.4203262-2.4426212-0.8189678-2.1696281,0.5981407c0.4859123,2.5223694,4.8863621,3.1515312,5.1992149,0.243803    c0.1437473-1.3360291-0.6412086-2.0893345-1.748558-2.6240501c-0.2427444-0.117218-0.740963-0.2645226-0.8886032-0.4750347    c-0.1090431-0.1554794-0.1970768-0.5004826-0.2148018-0.4629116c-0.1953144-0.015934-0.1721878,0.000248,0.0693817,0.0485458    c0.1459713,0.0290184,0.2931404,0.0443497,0.4415035,0.0459957c0.3018188,0.1112671,0.3395138,0.2479935,0.4892101,0.57057    C21.2692814,21.7832394,23.2093811,20.6417828,22.6031628,19.3354607L22.6031628,19.3354607z"/></g><g><path class="st0" d="M19.0876675,24.8650455c0,0.1944447,0,0.3888893,0,0.583334c0,1.4477673,2.25,1.4501648,2.25,0    c0-0.1944447,0-0.3888893,0-0.583334C21.3376675,23.4172783,19.0876675,23.4148808,19.0876675,24.8650455L19.0876675,24.8650455z"/></g><g><path class="st0" d="M18.918047,17.4904289c0.013895,0.2152176,0.0179482,0.2002583-0.0494003,0.40518    c-0.1896725,0.5771198,0.2203712,1.2285347,0.7857437,1.3838825c0.6112175,0.1679459,1.1935043-0.2064667,1.3838844-0.7857437    c0.1063862-0.3237076,0.1517143-0.6634617,0.1297722-1.0033188c-0.0391521-0.6064148-0.4890308-1.125-1.125-1.125    C19.4643917,16.3654289,18.8786964,16.8809414,18.918047,17.4904289L18.918047,17.4904289z"/></g><g><path class="st0" d="M40.0440216,10.6763391c2.9230957-0.0204201,5.5550232-1.0949726,6.7070618,2.4966288    c0.6611748,2.0612898,0.0009537,5.542078,0.0013275,7.7234211c0.0008278,4.8176231,0.9533348,10.7388763,0.002655,15.4468384    c0.4766617,1.9960594-0.3680687,3.4077034-2.5341949,4.2349319c-1.2962227-0.0004654-2.5924454-0.0009308-3.8886681-0.0013962    c-1.9443359-0.0006981-3.8886681-0.0013962-5.833004-0.0020943c-5.1848907-0.0018616-10.3697815-0.0037231-15.5546722-0.0055847    c-2.4423027-0.0008774-5.3809996,0.4383965-7.7773371-0.0027924c-5.0427704-0.928421-6.0211296-3.8683434-6.1039753-8.1720123    c-0.0869656-4.5176563-0.1739306-9.0353127-0.2608962-13.552969c-0.0439267-2.2818985-1.0998778-6.8422976,1.5276399-8.2095251    c1.6274152-0.8468246,5.5363455-0.227891,7.3322783-0.2323055c4.9054022-0.0120583,9.8108034-0.0241175,14.7162046-0.0361767    c1.447607-0.0035582,1.4503117-2.2535648,0-2.25c-6.9572773,0.0171032-14.441783-0.7495708-21.3391762,0.1674862    c-5.8780646,0.7815294-4.580451,5.7031879-4.4869471,10.5605211c0.0745416,3.8722782,0.1490834,7.7445545,0.2236249,11.6168308    c0.0495911,2.5761528-0.7908986,7.3356209,0.5530405,9.7715263c2.2684674,4.111618,11.1943722,2.5878296,14.6433754,2.5890694    c8.1006145,0.0029068,16.2038116,0.0671692,24.3041763,0.0087242c5.318409-0.0383682,6.6671906-1.13871,6.7285309-6.4842339    c0.0443039-3.8606529-0.0013275-7.724247-0.0019913-11.5851288c-0.0006828-3.9675827,0.6386452-8.7124596-0.0519638-12.6260405    c-0.8467827-4.7985992-4.7874336-3.734498-8.9070892-3.705719C38.5967598,8.4364491,38.5934906,10.6864719,40.0440216,10.6763391    L40.0440216,10.6763391z"/></g><g><path class="st0" d="M4.2960143,34.586998c14.7500134-0.0144768,29.5000248-0.0289497,44.250042-0.0434265    c1.4477043-0.0014191,1.4502258-2.2514229,0-2.25c-14.7500153,0.0144768-29.5000267,0.0289497-44.250042,0.0434265    C2.8483095,32.3384171,2.8457887,34.5884209,4.2960143,34.586998L4.2960143,34.586998z"/></g><g><path class="st0" d="M25.9626675,39.1567116c1.4477673,0,1.4501667-2.25,0-2.25    C24.5149002,36.9067116,24.5125027,39.1567116,25.9626675,39.1567116L25.9626675,39.1567116z"/></g><g><path class="st0" d="M15.5460014,50.9900475c6.7222214,0,13.4444447,0,20.1666679,0c1.4477654,0,1.4501648-2.25,0-2.25    c-6.7222233,0-13.4444466,0-20.1666679,0C14.0982332,48.7400475,14.0958357,50.9900475,15.5460014,50.9900475    L15.5460014,50.9900475z"/></g><g><path class="st0" d="M27.66609,43.2668533c1.8679085,1.4590645,3.1248207,3.4100189,4.3597546,5.4001236    c0.7619743,1.2279243,2.7092133,0.0994415,1.9428101-1.1356163c-1.3265343-2.1377144-2.7055302-4.2885323-4.7115746-5.8554955    C28.1289597,40.7946663,26.5256214,42.3760109,27.66609,43.2668533L27.66609,43.2668533z"/></g><g><path class="st0" d="M32.0306282,48.4184303c0.2127914,0.5454063,0.4836845,0.8923798,0.9508171,1.2463608    c0.484623,0.3672333,1.2583389,0.0766144,1.5392151-0.403595c0.337616-0.5772247,0.0822105-1.1710815-0.403595-1.5392151    c0.1079674,0.0504608,0.1356964,0.0832329,0.0831871,0.0983086c-0.2207031-0.5656776-0.7547379-0.9586411-1.3838806-0.7857437    C32.2766342,47.1828728,31.8085613,47.8492622,32.0306282,48.4184303L32.0306282,48.4184303z"/></g><g><path class="st0" d="M22.3987503,41.4710922c-1.9749146,2.4472618-4.0191307,4.8316879-5.6097107,7.5556793    c-0.731636,1.2529793,1.2122326,2.3867836,1.9428082,1.1356163c1.4946136-2.559639,3.4020233-4.80056,5.2578926-7.1003036    C24.8909836,41.9452858,23.3086128,40.3436165,22.3987503,41.4710922L22.3987503,41.4710922z"/></g></g></svg>