
<!DOCTYPE svg><svg fill="#f19d00" enable-background="new 0 0 56 56" height="56px" id="Layer_1" version="1.1" viewBox="0 0 56 56" width="56px" xml:space="preserve" xmlns="http://www.w3.org/2000/svg" xmlns:xlink="http://www.w3.org/1999/xlink"><g><path clip-rule="evenodd" d="M45.209,23.442c0.328-3.83-0.521-7.596-0.431-11.396   c0.075-3.245-0.54-4.436-3.284-5.865c-3.438-1.793-6.93-1.435-10.512-0.587c-3.486,0.827-5.294,3.813-5.679,7.227   c-0.287,2.546,0.092,5.075-0.063,7.614c-0.059,0.964,0.442,1.483,1.271,0.73c0.421-0.384,0.62-0.282,0.999-0.053   c2.122,1.292,4.432,1.839,6.863,1.916c2.915,0.095,5.622-0.669,8.194-2.089c0.289-0.161,0.857-0.718,0.953-0.131   c0.155,0.926,0.518,2.117-0.4,2.816c-3.057,2.329-6.243,4.249-10.236,2.818c-0.554-0.197-1.26-0.563-1.517,0.303   c-0.235,0.798,0.484,1.049,1.035,1.296c1.776,0.801,3.577,0.763,5.415,0.242c1.933-0.548,3.729-1.413,5.725-2.742   c0,1.068-0.016,1.753,0.006,2.437c0.015,0.518-0.057,0.967-0.598,1.121c-3.589,1.043-7.053,3.217-10.963,1.369   c-0.461-0.218-1.021-0.421-1.309,0.217c-0.319,0.706,0.201,1.068,0.709,1.334c1.666,0.875,3.428,1.158,5.236,0.715   c2.037-0.498,4.053-1.098,6.08-1.648c0.308-0.086,0.613-0.447,0.948-0.06c0.497,0.584,0.18,3.193-0.491,3.59   c-3.043,1.805-6.284,2.552-9.766,1.958c-0.631-0.105-1.557-0.681-1.768,0.378c-0.223,1.103,0.854,1.122,1.537,1.274   c3.412,0.757,6.608-0.219,9.77-1.446c0.322-0.123,0.637-0.734,0.992-0.189c0.284,0.436,0.064,0.851-0.287,1.255   c-1.44,1.656-3.242,2.645-5.26,3.143c-2.097,0.521-4.231,0.639-6.363,0.134c-0.518-0.124-1.063-0.169-1.257,0.473   c-0.206,0.674,0.339,0.913,0.796,1.126c0.602,0.281,1.241,0.342,1.896,0.371c4.234,0.197,8.083-0.728,11.328-3.898   c0.689-0.674,0.918-1.205,0.885-2.117C45.514,32.534,44.814,27.999,45.209,23.442z M29.886,7.778   c3.75-1.368,7.557-2.014,11.298,0.15c2.486,1.438,2.705,4.289,0.453,6.098c-2.145,1.727-2.813,1.907-7.183,1.973   c-1.387-0.027-2.788,0.222-4.151-0.288c-1.641-0.616-2.741-1.716-2.896-3.639C27.253,10.226,28.141,8.417,29.886,7.778z    M41.551,19.564c-3.938,2.14-7.98,2.413-12.117,0.685c-2.189-0.919-2.823-2.083-2.572-4.415c5.605,2.98,10.957,2.628,16.279-0.549   C43.973,17.789,43.791,18.352,41.551,19.564z" fill-rule="evenodd"/><path clip-rule="evenodd" d="M29.449,44.666c-0.365-4.869-0.024-9.731-0.081-14.593   c-0.022-1.918-0.658-3.613-2.207-4.725c-3.838-2.763-8.048-3.735-12.529-2.352c-2.55,0.789-4.599,2.218-5.023,5.532   c-0.388,3.045,0.042,6.026-0.042,8.748c0.111,2.456,0.036,4.626-0.159,6.791c-0.083,0.94,0.042,1.833,0.505,2.593   c1.113,1.824,2.656,3.412,4.566,3.916c4.295,1.124,8.67,1.379,12.375-1.9C28.01,47.648,29.595,46.575,29.449,44.666z    M12.812,25.901c2.485-2.043,5.378-2.03,8.258-1.551c1.821,0.301,3.484,1.245,5.048,2.301c1.695,1.147,1.716,4.103,0.123,5.431   c-1.924,1.605-4.187,1.462-6.49,1.589c-1.938,0.241-3.879-0.162-5.817-0.711c-1.498-0.426-2.087-1.593-2.26-3.014   C11.493,28.469,11.55,26.94,12.812,25.901z M11.081,33.58c5.341,2.21,10.535,2.874,15.759,0.077   c0.625-0.333,0.841-0.301,0.923,0.503c0.171,1.634-0.627,2.646-1.871,3.262c-4.432,2.179-8.83,2.238-13.065-0.577   C11.718,36.108,10.797,35.115,11.081,33.58z M26.303,41.663c-3.437,2.3-7.159,2.442-10.96,1.926   c-3.005-0.413-4.428-2.515-3.959-5.604c5.299,3.568,10.715,3.455,16.164,0.51C28.035,40.055,27.511,40.853,26.303,41.663z    M27.379,45.574c-1.899,2.679-4.435,4.075-7.569,4.013c-3.057-0.059-6.067-0.33-8.182-3.281c-0.632-0.878-0.819-1.609-0.481-2.567   c4.929,2.399,9.74,2.541,14.573,0.063c0.09-0.045,0.173-0.117,0.266-0.141c0.547-0.136,1.203-0.979,1.553-0.464   C27.959,43.824,27.929,44.796,27.379,45.574z" fill-rule="evenodd"/></g></svg>